<svg id="Layer_1" data-name="Layer 1" xmlns="http://www.w3.org/2000/svg" viewBox="0 0 1002.49 661.21"><defs><style>.cls-1{fill:#e96533;}</style></defs><path class="cls-1" d="M991.62.06h-1.23L959.18.23,956,3.38a406.62,406.62,0,0,0-86.47,127.86h0a396.7,396.7,0,0,0-14.24,38.85l-.07,0c-.51,1.6-51.47,159.61-88,218.1l1,.6-1.36-.71a82.67,82.67,0,0,1-73.46,44.4c-43.19,0-67.9-30.76-81.61-58.93,35-33,208.4-205.5,208.4-371.73H798.57c0,41.22-12.1,83.33-30.16,123.65a140.39,140.39,0,0,1-61.75-94.78C706,27,706,16.11,706,9.6c0-3.27,0-6.14-.08-8.1l-21.6.61.08,7.58c0,10.81.14,19.49,1,24.48a162.17,162.17,0,0,0,73.78,111.08C710.71,241.42,631.51,324,602.46,352.43c-17.39-43.07-35.05-103.5-37.46-111.85l0,0c-.06-.19-.15-.37-.22-.57s-.11-.39-.12-.41h0a.61.61,0,0,1,0-.12h0l-.15-.46,0,0a161.27,161.27,0,0,0-56.23-77.27,161.13,161.13,0,0,0,33-15.27A162.25,162.25,0,0,0,616.78,34.21a157.7,157.7,0,0,0,2-21L619.14,2,373.75,3.28V427.51c-3.35-.91-6.72-1.9-10.2-3.1A235,235,0,0,1,197.89,257.93c-1-3.68-1.89-7.33-2.87-12.11-6-20.35-17.31-40-33.32-58.15a162.35,162.35,0,0,0-28.93-27c3.27-1.17,6.58-2.22,9.77-3.6a163.08,163.08,0,0,0,16.87-8.47,162.16,162.16,0,0,0,50.17-45.15,160.08,160.08,0,0,0,19.88-36.2,160.66,160.66,0,0,0,10.25-41.61H273.8V4H219.37l-.45,10.33a139.72,139.72,0,0,1-9.56,45,139.29,139.29,0,0,1-17.25,31.39,140.76,140.76,0,0,1-43.55,39.16A136,136,0,0,1,134,137.25a138.57,138.57,0,0,1-27.63,8.59l-42.24-25-42.5,25.57V16H0V417.87l2.42,3C10.7,431,19.33,440.9,28.22,450.6A665.49,665.49,0,0,0,95.8,514.23a654.57,654.57,0,0,0,412.94,147A654.94,654.94,0,0,0,918.39,516.86L904.84,500A633.31,633.31,0,0,1,508.74,639.6,633,633,0,0,1,109.46,497.49,643.27,643.27,0,0,1,44.12,436q-11.58-12.62-22.51-25.8V184.27l42.6,25.17,54.14-32.57a142.5,142.5,0,0,1,26.94,24.86c14.12,16,23.88,32.92,28.77,49.23.84,4.28,1.84,8.43,3,12.58,23.38,88.33,92.71,158,180.16,181.49a164.49,164.49,0,0,0,25.6,6.66,168.59,168.59,0,0,0,28,2.38c2.15,0,4.22-.06,5.66-.13,2.76.07,5.54.13,8.38.13a254,254,0,0,0,170.59-65.46c22.48,42.19,56.79,65.46,98,65.46a104.18,104.18,0,0,0,91.81-54.7l.39.24c36.14-57.9,83.32-201.62,89.51-220.74h0c.1-.3.21-.59.3-.89l53.21,31.45L980.87,178V428c-2,2.21-3.94,4.42-6,6.6A641,641,0,0,1,905.25,500l13.57,16.82a662.7,662.7,0,0,0,72-67.63c3-3.28,6-6.58,8.95-9.94l2.7-3.05V0ZM64.11,184.3l-32-18.94L64.21,146l32,18.94ZM395.37,24.78l201.06-1.05c-.26,2.32-.59,4.66-1,7a140.66,140.66,0,0,1-65.56,97.34,139,139,0,0,1-46.67,18L440.6,120.87l-45.24,27.22V24.78ZM472.74,165,440.6,184.3l-32.05-18.94L440.69,146ZM416.29,432.34a151.4,151.4,0,0,1-20.93-.9V182.65l45.33,26.79,52.77-31.75a140,140,0,0,1,50.79,68.88c2.63,9.12,22.58,77.28,41.4,121.68a232.58,232.58,0,0,1-160.88,64.21C422.14,432.46,419.58,432.4,416.29,432.34Zm512.27-248-32-18.94L928.65,146,960.7,165Zm52.31-32.5-52.31-30.93-41.58,25c.83-2,1.57-4.13,2.44-6.15l-9.93-4.26,9.94,4.24A384.49,384.49,0,0,1,968.23,21.8l12.64-.07V151.8Z"/><path class="cls-1" d="M64.16,82.44C80.65,82.44,94,69.54,94,53.62S80.65,24.8,64.16,24.8,34.31,37.7,34.31,53.62,47.67,82.44,64.16,82.44Z"/></svg>