<svg xmlns="http://www.w3.org/2000/svg" xmlns:xlink="http://www.w3.org/1999/xlink"><symbol id="c" viewBox="0 0 67 61"><path d="M42.72 21.48h9.52C50.88 9.8 42.08.6 27.6.6 11.12.6.72 13.16.72 30.36c0 17.28 10.4 29.84 26.88 29.84 14.56 0 23.36-9.2 24.64-22.08h-9.52c-.64 6.96-4.72 13.92-15.36 13.92-12.32 0-17.2-10.32-17.2-21.68 0-11.28 4.88-21.6 17.2-21.6 10.56 0 14.32 6.96 15.36 12.72zm18.524 38.16c2.88 0 5.12-2 5.12-5.2 0-3.12-2.24-5.2-5.12-5.2-2.96 0-5.2 2.08-5.2 5.2 0 3.2 2.24 5.2 5.2 5.2z"/></symbol><symbol id="link-arrow2" viewBox="0 0 24 23"><path d="M3.464 0v3.425h14.66L0 20.585 2.43 23 20.554 5.84v14.57H24V0H3.464z"/></symbol><symbol id="facebook" viewBox="0 0 64 64"><path d="M47.9 25.6H40V15h6.5c1.1 0 2-.9 2-2V2c0-1.1-.9-2-2-2h-7.6C30.7 0 25 5.9 25 14.4v11.2h-9c-1.5 0-2.7 1.2-2.7 2.8v7.4c0 1.5 1.2 2.7 2.7 2.7h9v22.9c0 1.5 1.2 2.7 2.7 2.7h9.8c.6 0 1.2-.3 1.6-.7.5-.5.7-1.2.7-1.8V38.4h6.8c1.3 0 2.4-.9 2.6-2.1v-.2l1.4-7.1c.2-.8 0-1.6-.6-2.4-.4-.5-1.2-.9-2.1-1z"/></symbol><symbol id="instagram" viewBox="0 0 64 64"><path d="M32 16.9c-8.3 0-15 6.8-15 15.1s6.7 15.1 15 15.1S47 40.3 47 32s-6.7-15.1-15-15.1zm0 25.2c-5.5 0-10-4.5-10-10.1s4.5-10.1 10-10.1S42 26.4 42 32s-4.5 10.1-10 10.1zM47 10c-2.8 0-5 2.3-5 5s2.2 5 5 5 5-2.3 5-5-2.2-5-5-5z"/><path d="M48 0H16C7.2 0 0 7.2 0 16v31.7C0 56.7 7.3 64 16.3 64h31.5C56.7 64 64 56.7 64 47.7V16c0-8.8-7.2-16-16-16zm11 47.7C59 53.9 54 59 47.8 59H16.3C10.1 59 5 54 5 47.8V16C5 9.9 9.9 5 16 5h32c6.1 0 11 4.9 11 11v31.7z"/></symbol><symbol id="link-arrow" viewBox="0 0 75 75"><path d="M15 0v7.5h47.212L0 69.713 5.287 75 67.5 12.788V60H75V0H15z"/></symbol><symbol id="arrow-right"><path d="M60.638.607L55.335 5.91l33.384 33.384H.737v7.478H88.72L55.335 80.156l5.303 5.303 42.426-42.426L60.638.607z"/></symbol><symbol id="clip"><path d="M14.644 1.677a4.51 4.51 0 00-6.31.001L.98 9.031a3.445 3.445 0 004.871 4.871l6.658-6.658A2.216 2.216 0 109.376 4.11l-6.369 6.368a.579.579 0 00.819.82l6.368-6.37a1.059 1.059 0 011.498 1.498l-6.658 6.658A2.287 2.287 0 011.799 9.85l7.353-7.353a3.354 3.354 0 014.745 4.743l-7.353 7.353a.579.579 0 10.816.816l7.353-7.353a4.51 4.51 0 00-.07-6.379z"/></symbol><symbol id="close" viewBox="0 0 64 64"><path d="M35.4 32l19.9-19.9c1-1 1-2.4 0-3.4s-2.4-1-3.4 0L32 28.6 12 8.8c-.9-1-2.4-1-3.3 0s-1 2.4 0 3.4L28.6 32 8.7 51.9c-1 1-1 2.4 0 3.4.5.4 1 .7 1.7.7s1.2-.2 1.7-.7l20-19.9 20 19.8c.5.4 1.2.7 1.7.7s1.2-.2 1.7-.7c1-1 1-2.4 0-3.4L35.4 32z"/></symbol><symbol id="arrow-down"><path d="M29.508 17.438l-2.422-2.422L16.72 25.382 17.4.432l-3.424.01-.682 24.951L2.992 15.09.555 17.527 14.986 31.96l14.522-14.521z"/></symbol><symbol id="circle-text" viewBox="0 0 251 251"><path d="M242.801 140.725l-.273 3.202c3.967-.124 7.313-2.82 7.727-7.689.471-5.542-3.455-9.399-9.239-9.891-5.811-.494-10.333 2.644-10.804 8.186-.416 4.896 2.426 8.119 6.72 8.918l.273-3.202c-2.322-.414-4.546-1.985-4.242-5.563.352-4.143 3.962-5.489 7.783-5.164 3.793.322 7.124 2.259 6.771 6.402-.302 3.551-2.75 4.616-4.716 4.801zm-13.252 3.807l-.793 3.114 7.221 1.839-1.166 4.579c-1.147 4.5-7.137 1.108-8.141 1.771l-.834 3.271.183.046c.568-.914 7.494 2.522 9.405-1.588l.052.013c-.023 2.279 1.154 4 3.771 4.667 3.401.866 5.997-1.12 6.977-4.966l2.033-7.98-18.708-4.766zm15.272 7.206l-1.073 4.213c-.487 1.91-1.386 3.798-4.081 3.112-2.721-.693-2.581-2.775-2.094-4.685l1.073-4.213 6.175 1.573zm-10.296 16.006l4.824 2.041-4.186 9.897 2.512 1.062 5.437-12.856-17.78-7.52-5.543 13.105 2.512 1.062 4.291-10.146 5.397 2.283-3.671 8.678 2.536 1.073 3.671-8.679z"/><path d="M217.159 186.586l-4.706-1.06-1.714 2.782 20.148 4.1 1.77-2.874-12.715-16.169-1.713 2.781 3.064 3.727-4.134 6.713zm5.943-4.553l6.171 7.383-.028.046-9.357-2.21 3.214-5.219zm-16.12 10.508l-2.083 2.446 12.621 10.749-3.991 4.687 2.076 1.768 10.083-11.841-2.076-1.768-4.009 4.708-12.621-10.749zm5.986 21.999l-13.35-13.945-2.321 2.222 13.35 13.945 2.321-2.222zm-4.516 4.551l-17.06-11.182-2.748 2.14 6.666 19.278 2.684-2.09-5.829-15.481.021-.016 13.582 9.441 2.684-2.09zm-22.693 6.597l2.564 4.567-9.371 5.26 1.335 2.378 12.172-6.832-9.449-16.835-12.408 6.965 1.335 2.378 9.606-5.392 2.868 5.109-8.217 4.612 1.348 2.402 8.217-4.612zm-31.615 6.187l-2.839-3.9-3.123.961 12.442 16.368 3.226-.993 1.105-20.54-3.122.962-.154 4.822-7.535 2.32zm7.47.496l-.23 9.62-.052.016-5.575-7.832 5.857-1.804zm-25.325 11.531l-3.186.42c1.073 3.59 4.106 5.941 9.085 5.285 5.514-.727 8.44-5.388 7.682-11.143-.762-5.782-4.421-9.576-9.962-8.846-2.891.381-4.54 1.715-5.571 3.811l-.053.008-1.042-2.532-2.195.289 1.323 10.038 8.646-1.139-.339-2.57-5.407.713c-.375-3.055 1.759-5.461 4.784-5.859 4.363-.575 6.154 2.893 6.63 6.506.473 3.587-.734 7.45-4.829 7.99-2.838.374-4.784-.759-5.566-2.971zm-11.7-1.523l-.182 5.235-10.74-.373-.094 2.725 13.95.485.671-19.293-14.221-.494-.094 2.725 11.009.383-.204 5.855-9.417-.327-.096 2.752 9.418.327zm-11.831-11.857l-3.154-.614-2.76 14.179-.053-.01-5.8-15.846-3.498-.681-3.69 18.949 3.154.614 2.771-14.231.053.01 5.763 15.893 3.525.686 3.689-18.949zm-34.046 3.642l-3.004-1.14c-.97 3.848.706 7.805 5.275 9.539 5.2 1.974 9.985-.744 12.045-6.172 2.07-5.452.292-10.661-4.908-12.634-4.595-1.744-8.473.105-10.42 4.016l3.005 1.14c1.035-2.119 3.156-3.827 6.513-2.553 3.888 1.476 4.192 5.316 2.831 8.901-1.35 3.559-4.126 6.231-8.014 4.756-3.332-1.265-3.685-3.911-3.323-5.853zm-8.436 3.612l-.085-13.507 3.851-6.63-2.778-1.614-3.852 6.63-11.775 6.618 2.965 1.723 8.845-5.229.047.027-.183 10.26 2.965 1.722zm-45.298-38.123l1.622 2.022 19.737-6.251-1.622-2.021-19.737 6.25zm-6.6-9.881l1.424 2.166 20.24-4.351-1.423-2.166-20.24 4.351zm-9.635-45.269l-.65-3.147c-3.768 1.247-6.207 4.784-5.219 9.57 1.126 5.447 5.987 8.027 11.672 6.852 5.712-1.18 9.153-5.475 8.027-10.922-.994-4.813-4.636-7.093-8.98-6.636l.65 3.146c2.344-.264 4.923.61 5.65 4.126.841 4.072-2.237 6.39-5.991 7.166-3.728.77-7.473-.138-8.314-4.21-.721-3.49 1.322-5.208 3.155-5.945zm.177-10.324l-5.233.222-.456-10.736-2.724.116.592 13.946 19.288-.819-.604-14.216-2.725.115.468 11.006-5.854.249-.4-9.415-2.751.117.4 9.415zm10.883-13.194l.371-3.191-14.348-1.667.006-.053 15.354-6.997.412-3.54-19.176-2.227-.371 3.191 14.402 1.673-.006.054-15.405 6.963-.415 3.567 19.176 2.227zm3.462-21.713l.852-3.098-15.984-4.397 1.632-5.935-2.629-.723-4.125 14.995 2.63.723 1.64-5.962 15.984 4.397zm2.899-10.18l1.318-2.93-6.797-3.056 1.938-4.31c1.904-4.235 7.22.139 8.324-.342l1.384-3.078-.172-.078c-.716.803-6.947-3.774-9.538-.054l-.049-.022c.416-2.241-.448-4.14-2.91-5.246-3.202-1.44-6.1.07-7.728 3.69l-3.377 7.51 17.607 7.916zm-13.802-9.728l1.782-3.965c.808-1.797 2.02-3.503 4.556-2.362 2.56 1.15 2.064 3.177 1.256 4.975l-1.783 3.965-5.811-2.613zm4.366-15.135l16.657 9.758 1.624-2.773-16.657-9.757-1.624 2.772zm14.879-5.782l4.044 11.111 2.23-3.018-3.332-8.168.016-.022 8.803.762 2.23-3.019-11.853-.631-3.965-10.448-2.069 2.802 3.119 7.775-.016.022-8.333-.717-2.069 2.802 11.195.75zm30.184-40.392l-2.176 1.407 4.202 20.273 2.176-1.408-4.202-20.272zm10.582-5.619l-2.302 1.193 2.244 20.58 2.302-1.192-2.245-20.581zm45.96-4.984l3.197-.321c-.851-3.876-4.117-6.669-8.98-6.18-5.534.557-8.602 5.126-8.021 10.902.584 5.803 4.5 9.67 10.034 9.112 4.89-.491 7.534-3.878 7.529-8.246l-3.197.321c.02 2.359-1.115 4.834-4.688 5.193-4.137.416-6.124-2.884-6.508-6.699-.381-3.788.909-7.418 5.046-7.834 3.546-.357 5.044 1.853 5.588 3.752zm6.539 12.275l3.206.21.488-7.436 4.715.31c4.634.304 2.394 6.813 3.23 7.68l3.368.221.012-.189c-1.003-.39 1.109-7.828-3.281-8.955l.003-.054c2.245-.393 3.722-1.866 3.899-4.56.23-3.502-2.197-5.691-6.158-5.951l-8.217-.54-1.265 19.264zm4.292-16.332l4.338.285c1.967.129 3.988.667 3.806 3.442-.184 2.802-2.257 3.045-4.224 2.916l-4.337-.285.417-6.358zm18.18 7.243l1.138-5.113 10.489 2.334.592-2.661-13.625-3.033-4.194 18.844 13.889 3.091.592-2.662-10.753-2.393 1.273-5.72 9.198 2.048.599-2.688-9.198-2.047z"/><path d="M168.69 24.167l-.191 4.82 3.045 1.183.39-20.557-3.146-1.221-13.605 15.428 3.046 1.182 3.111-3.688 7.35 2.853zm-5.552-5.022l6.146-7.404.05.02-.483 9.602-5.713-2.218zm13.201 13.867l2.784 1.603 8.274-14.366 5.334 3.073 1.361-2.363-13.477-7.762-1.361 2.363 5.358 3.086-8.273 14.366zm20.428-10.002l-11.299 15.652 2.605 1.88 11.299-15.652-2.605-1.88zm5.742 3.912l-7.982 18.772 2.594 2.325 17.792-9.977-2.533-2.27-14.203 8.48-.02-.018 6.885-15.041-2.533-2.271zm10.387 20.938l4.025-3.352 6.877 8.257 2.096-1.745-8.934-10.726-14.834 12.356 9.107 10.933 2.095-1.745-7.05-8.465 4.502-3.75 6.031 7.24 2.116-1.762-6.031-7.24zm32.338 41.975l-.837-2.453-20.686-.842.837 2.453 20.686.842zm2.803 11.364l-.602-2.521-20.514-2.794.602 2.521 20.514 2.794z"/></symbol><symbol id="linkedin-original" viewBox="0 0 64 64"><path d="M59.3 0H4.7C2.1 0 0 2.1 0 4.6v54.8C0 61.9 2.1 64 4.7 64h54.5c2.6 0 4.7-2.1 4.7-4.6V4.6c.1-2.5-2-4.6-4.6-4.6zM19 54.5H9.5V24H19v30.5zm-4.8-34.7c-3 0-5.5-2.5-5.5-5.5s2.5-5.5 5.5-5.5 5.5 2.5 5.5 5.5c0 3.1-2.4 5.5-5.5 5.5zm40.3 34.7H45V39.7c0-3.5-.1-8.1-4.9-8.1-4.9 0-5.7 3.9-5.7 7.8v15.1h-9.5V24H34v4.2h.1c1.3-2.4 4.4-4.9 9-4.9 9.6 0 11.4 6.3 11.4 14.6v16.6z"/></symbol><symbol id="menu" viewBox="0 -53 384 384"><path d="M368 154.668H16c-8.832 0-16-7.168-16-16s7.168-16 16-16h352c8.832 0 16 7.168 16 16s-7.168 16-16 16zM368 32H16C7.168 32 0 24.832 0 16S7.168 0 16 0h352c8.832 0 16 7.168 16 16s-7.168 16-16 16zm0 245.332H16c-8.832 0-16-7.168-16-16s7.168-16 16-16h352c8.832 0 16 7.168 16 16s-7.168 16-16 16zm0 0"/></symbol><symbol id="linkedin" viewBox="0 0 24 24"><path d="M23.994 24v-.001H24v-8.802c0-4.306-.927-7.623-5.961-7.623-2.42 0-4.044 1.328-4.707 2.587h-.07V7.976H8.489v16.023h4.97v-7.934c0-2.089.396-4.109 2.983-4.109 2.549 0 2.587 2.384 2.587 4.243V24zM.396 7.977h4.976V24H.396zM2.882 0C1.291 0 0 1.291 0 2.882s1.291 2.909 2.882 2.909 2.882-1.318 2.882-2.909A2.884 2.884 0 002.882 0z"/></symbol><symbol id="logo" viewBox="0 0 76 19"><path d="M10.05 9.9h2.625c-.325-2.9-2.5-5.025-5.825-5.025-3.8 0-6.275 2.75-6.275 6.75s2.475 6.75 6.3 6.75c3.325 0 5.6-2.175 5.8-5.125H10.05c-.1 1.425-.925 2.975-3.175 2.975-2.6 0-3.675-2.2-3.675-4.6 0-2.4 1.1-4.6 3.675-4.6 2.25 0 3.075 1.575 3.175 2.875zm10.01 6.325c-2.326 0-3.7-1.775-3.7-3.925h9.8c0-4.55-2.026-7.425-6.15-7.425-3.85 0-6.276 2.6-6.276 6.75 0 4 2.425 6.75 6.4 6.75 3.275 0 5.175-1.85 5.825-4.275h-2.625c-.225.775-1.1 2.125-3.275 2.125zm-.05-9.275c2.124 0 3.524 1.425 3.524 3.4H16.36c0-1.975 1.525-3.4 3.65-3.4zm14.824-2.075c-2.2 0-3.525 1-4.2 2h-.05v-1.65h-2.625V18h2.625v-7.775c0-1.9 1.3-3.125 3.325-3.125 1.8 0 2.525 1.1 2.525 2.825V18h2.65V9.175c0-2.925-1.875-4.3-4.25-4.3zm12.506 2.5v-2.15h-2.4V1.2h-2.65v4.025h-1.85v2.15h1.85v7.15c0 2.7 1.15 3.65 3.25 3.65.7 0 1.275-.075 1.8-.2v-2.15c-1.7.1-2.4-.075-2.4-1.525V7.375h2.4zm9.083-2.45c-1.6 0-2.8 1.025-3.775 2.625l-.05.075.475-2.4h-2.625L47.948 18h2.625l1.275-6.45c.525-2.7 2.925-4.475 5.375-4.075l.4-2.45c-.35-.075-.675-.1-1.2-.1zm4.987-1.85c.65 0 1.4-.4 1.55-1.225.2-.975-.525-1.55-1.35-1.55-.65 0-1.4.4-1.575 1.2-.175 1 .55 1.575 1.375 1.575zm-1.9 2.15L57.01 18h2.625l2.5-12.775H59.51zm4.495 0l3.075 6.25L61.03 18h3.1l4.225-4.8h.05L70.73 18h3.025l-3.5-6.525 5.55-6.25H72.78l-3.775 4.5h-.05l-2.025-4.5h-2.925z"/></symbol><symbol id="long-arrow-left" viewBox="0 0 50 16"><path d="M.293 7.293a1 1 0 000 1.414l6.364 6.364a1 1 0 001.414-1.414L2.414 8l5.657-5.657A1 1 0 006.657.93L.293 7.293zM50 7H1v2h49V7z"/></symbol><symbol id="long-arrow-right" viewBox="0 0 50 16"><path d="M49.707 8.707a1 1 0 000-1.414L43.343.929a1 1 0 10-1.414 1.414L47.586 8l-5.657 5.657a1 1 0 001.414 1.414l6.364-6.364zM0 9h49V7H0v2z"/></symbol><symbol id="paper-clip" viewBox="0 0 16 16"><path d="M14.644 1.676a4.51 4.51 0 00-6.31.001L.98 9.03a3.445 3.445 0 004.871 4.872l6.658-6.659A2.216 2.216 0 109.376 4.11l-6.369 6.368a.579.579 0 00.819.82l6.368-6.37a1.059 1.059 0 011.498 1.498l-6.658 6.658A2.287 2.287 0 011.799 9.85l7.353-7.353a3.354 3.354 0 014.745 4.743l-7.353 7.353a.579.579 0 10.816.816l7.353-7.353a4.51 4.51 0 00-.07-6.379z"/></symbol><symbol id="soc-fb" viewBox="0 0 512 512"><path d="M288 192v-38.1c0-17.2 3.8-25.9 30.5-25.9H352V64h-55.9c-68.5 0-91.1 31.4-91.1 85.3V192h-45v64h45v192h83V256h56.4l7.6-64h-64z"/></symbol><symbol id="soc-gp" viewBox="0 0 512 512"><path d="M242.1 275.6l-18.2-13.7-.1-.1c-5.8-4.6-10-8.3-10-14.7 0-7 5-11.8 10.9-17.4l.5-.4c20-15.2 44.7-34.3 44.7-74.6 0-26.9-11.9-44.7-23.3-57.7h13L320 64H186.5c-25.3 0-62.7 3.2-94.6 28.6l-.1.3C70 110.9 57 137.4 57 163.5c0 21.2 8.7 42.2 23.9 57.4 21.4 21.6 48.3 26.1 67.1 26.1 1.5 0 3 0 4.5-.1-.8 3-1.2 6.3-1.2 10.3 0 10.9 3.6 19.3 8.1 26.2-24 1.9-58.1 6.5-84.9 22.3-39.4 22.7-42.5 56-42.5 65.6 0 38.2 35.7 76.8 115.5 76.8 91.6 0 139.5-49.8 139.5-99 0-37.1-22.8-55.6-44.9-73.5zM116.7 139.9c0-13.4 3-23.5 9.3-30.9 6.5-7.9 18.2-13.1 29-13.1 19.9 0 32.9 15 40.4 27.6 9.2 15.5 14.9 36.1 14.9 53.6 0 4.9 0 20-10.2 29.8-7 6.7-18.7 11.4-28.6 11.4-20.5 0-33.5-14.7-40.7-27-10.4-17.8-14.1-38.2-14.1-51.4zM237.8 368c0 27.4-25.2 44.5-65.8 44.5-48.1 0-80.3-20.6-80.3-51.3 0-26.1 21.5-36.8 37.8-42.5 18.9-6.1 44.3-7.3 50.1-7.3 3.9 0 6.1 0 8.7.2 36.6 25.2 49.5 36.1 49.5 56.4z"/><path d="M402 142V64h-34v78h-80v34h80v81h34v-81h78v-34z"/></symbol><symbol id="soc-lin" viewBox="0 0 512 512"><path d="M417.2 64H96.8C79.3 64 64 76.6 64 93.9V415c0 17.4 15.3 32.9 32.8 32.9h320.3c17.6 0 30.8-15.6 30.8-32.9V93.9C448 76.6 434.7 64 417.2 64zM183 384h-55V213h55v171zm-25.6-197h-.4c-17.6 0-29-13.1-29-29.5 0-16.7 11.7-29.5 29.7-29.5s29 12.7 29.4 29.5c0 16.4-11.4 29.5-29.7 29.5zM384 384h-55v-93.5c0-22.4-8-37.7-27.9-37.7-15.2 0-24.2 10.3-28.2 20.3-1.5 3.6-1.9 8.5-1.9 13.5V384h-55V213h55v23.8c8-11.4 20.5-27.8 49.6-27.8 36.1 0 63.4 23.8 63.4 75.1V384z"/></symbol><symbol id="soc-tw" viewBox="0 0 512 512"><path d="M492 109.5c-17.4 7.7-36 12.9-55.6 15.3 20-12 35.4-31 42.6-53.6-18.7 11.1-39.4 19.2-61.5 23.5C399.8 75.8 374.6 64 346.8 64c-53.5 0-96.8 43.4-96.8 96.9 0 7.6.8 15 2.5 22.1-80.5-4-151.9-42.6-199.6-101.3-8.3 14.3-13.1 31-13.1 48.7 0 33.6 17.2 63.3 43.2 80.7-16-.4-31-4.8-44-12.1v1.2c0 47 33.4 86.1 77.7 95-8.1 2.2-16.7 3.4-25.5 3.4-6.2 0-12.3-.6-18.2-1.8 12.3 38.5 48.1 66.5 90.5 67.3-33.1 26-74.9 41.5-120.3 41.5-7.8 0-15.5-.5-23.1-1.4C62.8 432 113.7 448 168.3 448 346.6 448 444 300.3 444 172.2c0-4.2-.1-8.4-.3-12.5C462.6 146 479 129 492 109.5z"/></symbol><symbol id="soc-pinterest" viewBox="0 0 512 512"><path d="M256 32C132.3 32 32 132.3 32 256c0 91.7 55.2 170.5 134.1 205.2-.6-15.6-.1-34.4 3.9-51.4 4.3-18.2 28.8-122.1 28.8-122.1s-7.2-14.3-7.2-35.4c0-33.2 19.2-58 43.2-58 20.4 0 30.2 15.3 30.2 33.6 0 20.5-13.1 51.1-19.8 79.5-5.6 23.8 11.9 43.1 35.4 43.1 42.4 0 71-54.5 71-119.1 0-49.1-33.1-85.8-93.2-85.8-67.9 0-110.3 50.7-110.3 107.3 0 19.5 5.8 33.3 14.8 43.9 4.1 4.9 4.7 6.9 3.2 12.5-1.1 4.1-3.5 14-4.6 18-1.5 5.7-6.1 7.7-11.2 5.6-31.3-12.8-45.9-47-45.9-85.6 0-63.6 53.7-139.9 160.1-139.9 85.5 0 141.8 61.9 141.8 128.3 0 87.9-48.9 153.5-120.9 153.5-24.2 0-46.9-13.1-54.7-27.9 0 0-13 51.6-15.8 61.6-4.7 17.3-14 34.5-22.5 48 20.1 5.9 41.4 9.2 63.5 9.2 123.7 0 224-100.3 224-224C480 132.3 379.7 32 256 32z"/></symbol><symbol id="triangle" viewBox="0 0 17 19"><path d="M16.021 9.5L.24 18.61V.388L16.02 9.5z"/></symbol><symbol id="twitter" viewBox="0 0 64 64"><path d="M20.1 58.1c24.2 0 37.4-20 37.4-37.4 0-.5 0-1.1-.1-1.7 2.6-1.9 4.8-4.2 6.5-6.8-2.4 1.1-4.9 1.8-7.6 2.1 2.7-1.6 4.8-4.2 5.8-7.3-2.6 1.5-5.3 2.6-8.4 3.2C51.3 7.6 47.9 6 44.1 6c-7.3 0-13.2 5.9-13.2 13.2 0 1 .1 2 .3 3-10.6-.6-20.3-5.8-26.8-13.8-1.1 2-1.8 4.2-1.8 6.6 0 4.6 2.3 8.6 5.9 10.9-2.2-.1-4.2-.7-5.9-1.6v.1c0 6.3 4.5 11.7 10.5 12.9-1.1.3-2.3.5-3.4.5-.9 0-1.7-.1-2.5-.3 1.7 5.2 6.5 9 12.3 9.1-4.5 3.5-10.2 5.6-16.3 5.6-1.2.1-2.2 0-3.2-.1 5.7 3.8 12.7 6 20.1 6"/></symbol><symbol id="vertical-logo" viewBox="0 0 59 242"><path d="M31.08 210.84v-8.4c-9.28 1.04-16.08 8-16.08 18.64 0 12.16 8.8 20.08 21.6 20.08s21.6-7.92 21.6-20.16c0-10.64-6.96-17.92-16.4-18.56v8.4c4.56.32 9.52 2.96 9.52 10.16 0 8.32-7.04 11.76-14.72 11.76-7.68 0-14.72-3.52-14.72-11.76 0-7.2 5.04-9.84 9.2-10.16zm20.24-32.029c0 7.44-5.68 11.84-12.56 11.84v-31.36c-14.56 0-23.76 6.48-23.76 19.68 0 12.32 8.32 20.08 21.6 20.08 12.8 0 21.6-7.76 21.6-20.48 0-10.48-5.92-16.56-13.68-18.64v8.4c2.48.72 6.8 3.52 6.8 10.48zm-29.68.16c0-6.8 4.56-11.28 10.88-11.28v22.96c-6.32 0-10.88-4.88-10.88-11.68zM15 131.531c0 7.04 3.2 11.28 6.4 13.44v.16h-5.28v8.4H57v-8.4H32.12c-6.08 0-10-4.16-10-10.64 0-5.76 3.52-8.08 9.04-8.08H57v-8.48H28.76c-9.36 0-13.76 6-13.76 13.6zm8-40.02h-6.88v7.68H3.24v8.48h12.88v5.92H23v-5.92h22.88c8.64 0 11.68-3.68 11.68-10.4 0-2.24-.24-4.08-.64-5.76h-6.88c.32 5.44-.24 7.68-4.88 7.68H23v-7.68zm-7.84-29.065c0 5.12 3.28 8.96 8.4 12.08l.24.16-7.68-1.52v8.4l40.88 8v-8.4l-20.64-4.08c-8.64-1.68-14.32-9.36-13.04-17.2l-7.84-1.28c-.24 1.12-.32 2.16-.32 3.84zM9.24 46.49c0-2.08-1.28-4.48-3.92-4.96C2.2 40.89.36 43.21.36 45.85c0 2.08 1.28 4.48 3.84 5.04 3.2.56 5.04-1.76 5.04-4.4zm6.88 6.08l40.88 8v-8.4l-40.88-8v8.4zm0-14.386l20-9.84L57 47.703v-9.92l-15.36-13.52v-.16L57 16.663v-9.68l-20.88 11.2-20-17.76v9.68l14.4 12.08v.16l-14.4 6.48v9.36z"/></symbol></svg>